Coordinates
version=1
nRows=16
nColumns=36
inDegrees=yes

Units are S.I. units (second, meters, Newtons, ...)
If the header above contains a line with 'inDegrees', this indicates whether rotational values are in degrees (yes) or radians (no).

endheader
time	pelvis_tilt	pelvis_list	pelvis_rotation	pelvis_tx	pelvis_ty	pelvis_tz	hip_flexion_r	hip_adduction_r	hip_rotation_r	knee_angle_r	knee_angle_r_beta	ankle_angle_r	subtalar_angle_r	mtp_angle_r	hip_flexion_l	hip_adduction_l	hip_rotation_l	knee_angle_l	knee_angle_l_beta	ankle_angle_l	subtalar_angle_l	mtp_angle_l	lumbar_extension	lumbar_bending	lumbar_rotation	arm_flex_r	arm_add_r	arm_rot_r	elbow_flex_r	pro_sup_r	arm_flex_l	arm_add_l	arm_rot_l	elbow_flex_l	pro_sup_l
      2.46250000	     -7.38285673	      0.59782749	      0.18711784	      0.29771237	      1.18805834	     -0.00387460	      6.09766243	     -1.25892789	     -3.55767227	      0.30103075	      0.00525398	    -46.68764952	     17.79577941	     -7.49999987	      8.02002331	     -5.44357792	     -0.61334455	      3.10879638	      0.05425873	    -48.68692616	      5.67449444	     -7.49999987	     -0.96151999	      0.40894431	     -0.21161561	      0.69211030	    -24.39211095	     39.51796600	     44.95519900	     63.38311785	     -4.32980312	    -21.74964304	     30.11055708	     49.85238952	     60.87501419
      2.46666670	     -7.20267093	      0.69926018	      0.17961272	      0.29747829	      1.19338703	     -0.00287416	      5.96654674	     -1.32986086	     -4.00799640	      0.27146050	      0.00473788	    -46.15267305	     17.04865831	     -7.49999987	      7.72897819	     -5.44780974	     -1.88870129	      2.54426590	      0.04440582	    -48.64471050	      4.56065097	     -7.49999987	     -1.16886604	      0.17620892	     -0.20280230	      0.66470159	    -23.61042350	     39.42841934	     43.70181422	     63.06351698	     -4.09012860	    -21.35850796	     30.05353732	     48.99216577	     60.68585444
      2.47083330	     -6.94530302	      0.73596434	      0.12278992	      0.29629215	      1.19630460	     -0.00197747	      5.75879763	     -1.29319349	     -4.51142288	      0.26075621	      0.00455105	    -45.66469664	     16.35982319	     -7.49999987	      7.45883394	     -5.40531573	     -3.14321509	      2.17967620	      0.03804253	    -48.51612413	      3.69986432	     -7.49999987	     -1.47274538	      0.04793078	     -0.11910188	      0.81931923	    -22.83866297	     39.39808612	     42.26428259	     62.63414819	     -3.74810113	    -20.90434568	     30.05155681	     48.06231565	     60.42518534
      2.47500000	     -6.78344411	      0.74408471	      0.04046725	      0.29365902	      1.19734738	     -0.00369434	      5.74431635	     -1.39597901	     -5.00099898	      0.26591685	      0.00464112	    -45.11279173	     15.83816666	     -7.49999987	      7.38220729	     -5.35366264	     -3.84169899	      1.99776963	      0.03486766	    -47.92601887	      2.77767846	     -7.49999987	     -1.63674460	      0.06938251	     -0.09329014	      1.36797427	    -22.03615777	     39.92681291	     40.18361023	     61.49864386	     -3.19650626	    -20.37174085	     30.50915873	     46.77883058	     59.66625914
      2.47916670	     -6.51615548	      0.82249409	     -0.00372595	      0.29615351	      1.20010354	      0.00040859	      5.51510740	     -1.39857954	     -5.43274705	      0.24225139	      0.00422808	    -44.58559702	     15.27771125	     -7.49999987	      6.92747134	     -5.32355636	     -5.01885199	      1.60632018	      0.02803558	    -47.41748105	      2.14201704	     -7.49999987	     -1.96349681	     -0.10888719	      0.05029473	      1.52448136	    -21.37194657	     40.12110253	     38.93285151	     61.03148986	     -2.89688792	    -20.07947950	     30.46478657	     46.24110186	     59.27775141
      2.48333330	     -6.34780222	      0.86696669	     -0.10550051	      0.29240418	      1.20299653	     -0.00131115	      5.55269722	     -1.49083564	     -6.10695399	      0.24336860	      0.00424758	    -44.18180368	     14.76948796	     -7.49999987	      6.79893845	     -5.21481878	     -5.54170390	      1.58582792	      0.02767792	    -46.65769337	      1.65837636	     -7.49999987	     -2.16556507	     -0.13071689	     -0.12889342	      2.53541610	    -20.83260024	     42.75350871	     37.19305722	     56.09089534	     -2.72559493	    -19.74781239	     30.91052182	     45.69669497	     55.51972238
      2.48750000	     -5.94023711	      0.82704095	     -0.09362118	      0.29398986	      1.20128100	      0.00002608	      5.15842395	     -1.42084845	     -7.00283092	      0.24608361	      0.00429497	    -43.81081722	     14.00121067	     -7.49999987	      6.20068737	     -5.16613310	     -6.56098817	      1.41143511	      0.02463419	    -46.16123499	      1.07930759	     -7.49999987	     -2.71910713	     -0.13730240	     -0.04975451	      2.67655345	    -20.20262867	     42.52421882	     36.09537742	     56.06753233	     -2.37581249	    -19.31963537	     30.68052788	     45.07098679	     55.67603757
      2.49166670	     -5.73980639	      0.90966693	     -0.09593558	      0.29563453	      1.20030920	      0.00233807	      4.94131996	     -1.52891465	     -7.50342235	      0.23920203	      0.00417486	    -43.45238243	     13.23186164	     -7.49999987	      5.80595267	     -5.00504261	     -7.30675763	      1.29387635	      0.02258240	    -45.69670446	      0.62144733	     -7.49999987	     -2.97265748	     -0.29425782	      0.04730960	      2.80114144	    -19.50397319	     42.57613225	     34.76217374	     55.89508922	     -2.08949763	    -18.96127702	     30.64511151	     44.30082216	     55.61784284
      2.49583330	     -5.51738213	      0.93197806	     -0.25794935	      0.29462579	      1.20269067	      0.00353101	      4.74007167	     -1.51865659	     -8.19207287	      0.23307327	      0.00406790	    -43.12853609	     12.36143128	     -7.49999987	      5.49404288	     -5.03896724	     -7.72721162	      1.23818161	      0.02161035	    -45.53959192	      0.02090786	     -7.49999987	     -3.23444947	     -0.37856485	      0.30620678	      2.89059102	    -18.90048193	     42.71725896	     33.52877864	     55.68741235	     -1.87861846	    -18.54686970	     30.60738422	     43.55470689	     55.49815265
      2.50000000	     -5.48983587	      1.17506197	     -0.33815131	      0.29501606	      1.20946502	      0.00529970	      4.71402147	     -1.75716562	     -8.81451289	      0.21552961	      0.00376170	    -42.89403593	     11.98841309	     -7.49999987	      5.35745380	     -4.90946564	     -8.31239771	      1.21251308	      0.02116235	    -45.22449798	      0.11078523	     -7.49999987	     -3.21937356	     -0.73345594	      0.54204996	      2.88261740	    -18.29296470	     42.93307364	     32.45670460	     55.42321268	     -1.83574192	    -18.16030472	     30.71344660	     42.81907280	     55.32815622
      2.50416670	     -5.47730399	      1.33943452	     -0.27419130	      0.29352315	      1.20627034	      0.00470718	      4.70689568	     -1.90131717	     -9.79161405	      0.21321295	      0.00372127	    -42.69114045	     11.39530099	     -7.49999987	      5.37216066	     -4.74403568	     -9.08706690	      1.23278420	      0.02151614	    -44.99913921	     -0.14366127	     -7.49999987	     -3.04073674	     -0.94662865	      0.59827458	      3.46097100	    -17.78776594	     46.24273078	     30.83303176	     49.71071639	     -1.33615003	    -18.01288967	     32.90079893	     41.76046969	     50.85138277
      2.50833330	     -5.12067709	      1.19766990	     -0.39240371	      0.29313673	      1.20245752	      0.00653029	      4.34104404	     -1.70966553	     -9.73620608	      0.21573018	      0.00376520	    -43.07631058	      9.92225457	     -7.49999987	      5.02402326	     -4.84447771	     -9.56937472	      1.14258495	      0.01994187	    -44.98760497	     -0.59795438	     -7.49999987	     -3.70391560	     -0.81291615	      0.88498695	      3.37077959	    -17.56525257	     45.71118716	     30.72086851	     50.54818278	     -1.29529106	    -17.56422838	     32.43613890	     41.62312839	     51.65903088
      2.51250000	     -5.16213801	      1.25464078	     -0.40301719	      0.29409076	      1.20893635	      0.00610923	      4.45493255	     -1.79514284	    -10.98805958	      0.20961710	      0.00365851	    -43.43820323	      9.85609439	     -7.49999987	      5.08952076	     -4.72607882	     -9.92294633	      1.00074280	      0.01746626	    -45.10837086	     -0.22552035	     -7.49999987	     -3.65273853	     -0.86913578	      1.03024554	      3.37550723	    -17.08857217	     45.67463663	     29.72724378	     50.63399574	     -1.24862398	    -17.05797841	     32.67486873	     40.76252765	     51.85987365
      2.51666670	     -5.13729857	      1.14121772	     -0.38857174	      0.29223498	      1.20440971	      0.00630110	      4.52205396	     -1.73835612	    -11.68995377	      0.21071022	      0.00367759	    -44.01521284	      8.92124060	     -7.49999987	      5.12836478	     -4.77949680	    -10.12239887	      1.01062751	      0.01763878	    -44.88298804	     -0.26514000	     -7.49999987	     -3.70089062	     -0.70913855	      1.25749973	      3.51633222	    -16.77366865	     46.76534949	     28.68542552	     49.40810706	     -0.80584085	    -16.76418994	     34.11328008	     39.86603689	     51.03010751
      2.52083330	     -4.90674037	      1.11389166	     -0.36617119	      0.29276003	      1.20806410	      0.00719237	      4.26601937	     -1.69079654	    -12.48160356	      0.21155517	      0.00369233	    -44.26038182	      7.97250304	     -7.49999987	      4.86707604	     -4.74429696	    -10.04284294	      0.98110501	      0.01712351	    -44.59739000	      0.03688847	     -7.49999987	     -4.02072280	     -0.64680053	      1.46825252	      3.44143378	    -16.68887633	     46.70185820	     28.75894049	     49.46732555	     -0.76726008	    -16.47984149	     34.05961175	     39.90859934	     51.11393222
      2.52500000	     -4.70895029	      1.14002634	     -0.42280347	      0.29288135	      1.20557912	      0.00668581	      4.16835162	     -1.74985968	    -13.29857993	      0.20627134	      0.00360011	    -44.49350226	      7.35394739	     -7.49999987	      4.60169993	     -4.65332823	    -10.26005358	      0.99780624	      0.01741500	    -44.13620337	      0.38541785	     -7.49999987	     -4.30753766	     -0.62496688	      1.67956640	      3.46522029	    -16.43084084	     46.50266269	     28.37700956	     49.86127562	     -0.72472534	    -16.14717454	     33.97453314	     39.72697753	     51.51253627
